<svg width="50" height="31" viewBox="0 0 129 31" fill="none" xmlns="http://www.w3.org/2000/svg">
<path d="M13.4 6.39C12.64 5.99 11.82 5.65 10.94 5.37C10.06 5.09 9.21 4.95 8.39 4.95C7.27 4.95 6.38 5.21 5.72 5.73C5.06 6.23 4.73 6.92 4.73 7.8C4.73 8.42 4.95 8.96 5.39 9.42C5.83 9.88 6.4 10.28 7.1 10.62C7.8 10.96 8.54 11.28 9.32 11.58C9.98 11.82 10.63 12.11 11.27 12.45C11.93 12.77 12.52 13.17 13.04 13.65C13.58 14.13 14 14.73 14.3 15.45C14.62 16.15 14.78 17.01 14.78 18.03C14.78 19.19 14.49 20.24 13.91 21.18C13.35 22.12 12.53 22.87 11.45 23.43C10.39 23.97 9.1 24.24 7.58 24.24C6.66 24.24 5.76 24.14 4.88 23.94C4.02 23.72 3.2 23.44 2.42 23.1C1.66 22.74 0.97 22.35 0.35 21.93L1.79 19.44C2.27 19.78 2.82 20.11 3.44 20.43C4.06 20.73 4.7 20.97 5.36 21.15C6.04 21.33 6.68 21.42 7.28 21.42C7.94 21.42 8.59 21.31 9.23 21.09C9.87 20.85 10.4 20.49 10.82 20.01C11.24 19.51 11.45 18.86 11.45 18.06C11.45 17.38 11.26 16.81 10.88 16.35C10.52 15.87 10.03 15.46 9.41 15.12C8.81 14.78 8.16 14.48 7.46 14.22C6.78 13.96 6.09 13.67 5.39 13.35C4.69 13.03 4.04 12.65 3.44 12.21C2.84 11.75 2.35 11.19 1.97 10.53C1.61 9.85 1.43 9.02 1.43 8.04C1.43 6.88 1.7 5.87 2.24 5.01C2.8 4.13 3.57 3.44 4.55 2.94C5.53 2.44 6.66 2.16 7.94 2.1C9.4 2.1 10.67 2.28 11.75 2.64C12.83 3 13.79 3.43 14.63 3.93L13.4 6.39ZM26.3609 24.3C25.4409 24.3 24.5609 24.1 23.7209 23.7C22.8809 23.28 22.2109 22.72 21.7109 22.02L21.8909 21.09V30.03H18.8309V11.22H21.5009L21.9209 14.28L21.5909 13.41C22.2109 12.69 22.9709 12.09 23.8709 11.61C24.7909 11.13 25.8109 10.89 26.9309 10.89C28.1109 10.89 29.1709 11.17 30.1109 11.73C31.0509 12.29 31.7909 13.08 32.3309 14.1C32.8709 15.12 33.1409 16.32 33.1409 17.7C33.1409 19.06 32.8409 20.24 32.2409 21.24C31.6609 22.22 30.8609 22.98 29.8409 23.52C28.8209 24.04 27.6609 24.3 26.3609 24.3ZM25.7609 21.87C26.5209 21.87 27.2209 21.69 27.8609 21.33C28.5209 20.97 29.0409 20.48 29.4209 19.86C29.8209 19.22 30.0209 18.51 30.0209 17.73C30.0209 16.91 29.8309 16.19 29.4509 15.57C29.0909 14.93 28.6009 14.43 27.9809 14.07C27.3809 13.71 26.7109 13.53 25.9709 13.53C25.2709 13.53 24.6509 13.66 24.1109 13.92C23.5709 14.16 23.1109 14.5 22.7309 14.94C22.3509 15.38 22.0809 15.91 21.9209 16.53V18.84C22.0409 19.42 22.2809 19.94 22.6409 20.4C23.0009 20.86 23.4509 21.22 23.9909 21.48C24.5309 21.74 25.1209 21.87 25.7609 21.87ZM42.6999 24.3C41.2399 24.3 39.9899 24.02 38.9499 23.46C37.9099 22.88 37.1099 22.09 36.5499 21.09C35.9899 20.07 35.7099 18.91 35.7099 17.61C35.7099 16.37 36.0199 15.25 36.6399 14.25C37.2799 13.23 38.1299 12.42 39.1899 11.82C40.2699 11.22 41.4599 10.92 42.7599 10.92C44.4399 10.92 45.8299 11.41 46.9299 12.39C48.0499 13.37 48.7999 14.74 49.1799 16.5L38.9499 20.04L38.2299 18.24L46.4199 15.3L45.7899 15.69C45.5499 15.07 45.1699 14.53 44.6499 14.07C44.1299 13.59 43.4199 13.35 42.5199 13.35C41.7999 13.35 41.1499 13.53 40.5699 13.89C40.0099 14.23 39.5599 14.71 39.2199 15.33C38.8999 15.93 38.7399 16.64 38.7399 17.46C38.7399 18.3 38.9099 19.04 39.2499 19.68C39.6099 20.3 40.0899 20.79 40.6899 21.15C41.3099 21.51 41.9999 21.69 42.7599 21.69C43.2999 21.69 43.8099 21.59 44.2899 21.39C44.7899 21.19 45.2599 20.94 45.6999 20.64L47.1099 22.92C46.4499 23.34 45.7299 23.68 44.9499 23.94C44.1899 24.18 43.4399 24.3 42.6999 24.3ZM57.8602 24.3C56.6802 24.3 55.6102 24.06 54.6502 23.58C53.6902 23.08 52.9302 22.34 52.3702 21.36C51.8102 20.38 51.5302 19.17 51.5302 17.73C51.5302 16.31 51.8202 15.09 52.4002 14.07C53.0002 13.05 53.7802 12.27 54.7402 11.73C55.7202 11.17 56.7802 10.89 57.9202 10.89C59.1202 10.89 60.1002 11.15 60.8602 11.67C61.6402 12.17 62.2502 12.76 62.6902 13.44L62.4802 13.92L62.7802 11.43H65.6302V24H62.5402V20.85L62.8702 21.6C62.7902 21.76 62.6202 21.99 62.3602 22.29C62.1002 22.57 61.7502 22.87 61.3102 23.19C60.8902 23.51 60.3902 23.78 59.8102 24C59.2502 24.2 58.6002 24.3 57.8602 24.3ZM58.7002 21.78C59.3602 21.78 59.9502 21.66 60.4702 21.42C60.9902 21.18 61.4302 20.84 61.7902 20.4C62.1502 19.96 62.4002 19.44 62.5402 18.84V16.23C62.3802 15.67 62.1102 15.19 61.7302 14.79C61.3502 14.37 60.8902 14.04 60.3502 13.8C59.8302 13.56 59.2502 13.44 58.6102 13.44C57.8902 13.44 57.2302 13.62 56.6302 13.98C56.0302 14.32 55.5502 14.8 55.1902 15.42C54.8302 16.04 54.6502 16.76 54.6502 17.58C54.6502 18.36 54.8302 19.07 55.1902 19.71C55.5702 20.35 56.0702 20.86 56.6902 21.24C57.3102 21.6 57.9802 21.78 58.7002 21.78ZM70.3641 24V0.69H73.4541V24H70.3641ZM76.5141 15.6L82.2741 24H78.6741L74.4741 17.37L76.5141 15.6ZM72.4941 20.13L72.1941 17.16L79.8141 11.16L81.7041 12.81L72.4941 20.13ZM89.1685 16.23C89.1685 17.15 89.3985 17.98 89.8585 18.72C90.3185 19.46 90.9285 20.05 91.6885 20.49C92.4485 20.93 93.2985 21.15 94.2385 21.15C95.2385 21.15 96.1285 20.93 96.9085 20.49C97.6885 20.05 98.2985 19.46 98.7385 18.72C99.1985 17.98 99.4285 17.15 99.4285 16.23V2.22H102.579V16.32C102.579 17.9 102.209 19.29 101.469 20.49C100.729 21.67 99.7285 22.59 98.4685 23.25C97.2085 23.91 95.7985 24.24 94.2385 24.24C92.7185 24.24 91.3285 23.91 90.0685 23.25C88.8085 22.59 87.8085 21.67 87.0685 20.49C86.3485 19.29 85.9885 17.9 85.9885 16.32V2.22H89.1685V16.23ZM115.218 24.3C114.298 24.3 113.418 24.1 112.578 23.7C111.738 23.28 111.068 22.72 110.568 22.02L110.748 21.09V30.03H107.688V11.22H110.358L110.778 14.28L110.448 13.41C111.068 12.69 111.828 12.09 112.728 11.61C113.648 11.13 114.668 10.89 115.788 10.89C116.968 10.89 118.028 11.17 118.968 11.73C119.908 12.29 120.648 13.08 121.188 14.1C121.728 15.12 121.998 16.32 121.998 17.7C121.998 19.06 121.698 20.24 121.098 21.24C120.518 22.22 119.718 22.98 118.698 23.52C117.678 24.04 116.518 24.3 115.218 24.3ZM114.618 21.87C115.378 21.87 116.078 21.69 116.718 21.33C117.378 20.97 117.898 20.48 118.278 19.86C118.678 19.22 118.878 18.51 118.878 17.73C118.878 16.91 118.688 16.19 118.308 15.57C117.948 14.93 117.458 14.43 116.838 14.07C116.238 13.71 115.568 13.53 114.828 13.53C114.128 13.53 113.508 13.66 112.968 13.92C112.428 14.16 111.968 14.5 111.588 14.94C111.208 15.38 110.938 15.91 110.778 16.53V18.84C110.898 19.42 111.138 19.94 111.498 20.4C111.858 20.86 112.308 21.22 112.848 21.48C113.388 21.74 113.978 21.87 114.618 21.87Z" fill="#39A7FF"/>
<path d="M124.867 1.17H127.627V18.33H124.867V1.17ZM126.337 24C125.777 24 125.307 23.84 124.927 23.52C124.567 23.2 124.387 22.79 124.387 22.29C124.387 21.79 124.567 21.38 124.927 21.06C125.307 20.72 125.777 20.55 126.337 20.55C126.877 20.55 127.317 20.72 127.657 21.06C128.017 21.38 128.197 21.79 128.197 22.29C128.197 22.79 128.027 23.2 127.687 23.52C127.347 23.84 126.897 24 126.337 24Z" fill="#FF5A6E"/>
</svg>
