<svg width="245" height="185" viewBox="0 0 245 185" fill="none" xmlns="http://www.w3.org/2000/svg">
<path d="M52.1267 31.94C50.1667 30.8667 48.16 29.98 46.1067 29.28C44.1 28.58 42.21 28.23 40.4367 28.23C38.2433 28.23 36.5167 28.6733 35.2567 29.56C33.9967 30.4467 33.3667 31.7767 33.3667 33.55C33.3667 34.7633 33.8333 35.86 34.7667 36.84C35.7467 37.7733 36.9833 38.6133 38.4767 39.36C40.0167 40.1067 41.6033 40.7833 43.2367 41.39C44.73 41.95 46.2 42.6267 47.6467 43.42C49.14 44.1667 50.47 45.1233 51.6367 46.29C52.8033 47.41 53.7367 48.8333 54.4367 50.56C55.1367 52.24 55.4867 54.3167 55.4867 56.79C55.4867 59.4033 54.81 61.83 53.4567 64.07C52.1033 66.31 50.12 68.13 47.5067 69.53C44.8933 70.8833 41.6733 71.56 37.8467 71.56C35.8867 71.56 33.88 71.3733 31.8267 71C29.82 70.58 27.8367 69.9733 25.8767 69.18C23.9167 68.34 22.0267 67.29 20.2067 66.03L24.6867 58.12C25.9 59.0067 27.2067 59.8 28.6067 60.5C30.0533 61.1533 31.5 61.6667 32.9467 62.04C34.3933 62.4133 35.7233 62.6 36.9367 62.6C38.15 62.6 39.3633 62.4367 40.5767 62.11C41.8367 61.7367 42.8633 61.13 43.6567 60.29C44.4967 59.45 44.9167 58.2833 44.9167 56.79C44.9167 55.7633 44.5667 54.83 43.8667 53.99C43.2133 53.15 42.3033 52.38 41.1367 51.68C40.0167 50.98 38.78 50.3733 37.4267 49.86C35.84 49.2533 34.2067 48.5533 32.5267 47.76C30.8467 46.9667 29.26 46.01 27.7667 44.89C26.32 43.7233 25.13 42.3 24.1967 40.62C23.31 38.8933 22.8667 36.7933 22.8667 34.32C22.8667 31.3333 23.52 28.7433 24.8267 26.55C26.18 24.3567 28.07 22.63 30.4967 21.37C32.9233 20.0633 35.7233 19.34 38.8967 19.2C43.05 19.2 46.41 19.69 48.9767 20.67C51.59 21.65 53.9233 22.8167 55.9767 24.17L52.1267 31.94ZM82.9972 71.84C81.1772 71.84 79.3806 71.5133 77.6072 70.86C75.8806 70.16 74.4339 69.18 73.2672 67.92L73.5472 65.05V85.7H63.8172V39.71H72.2172L73.6172 45.66L72.8472 43.56C74.4339 42.2067 76.2072 41.0867 78.1672 40.2C80.1272 39.3133 82.3906 38.87 84.9572 38.87C87.8039 38.87 90.3472 39.5467 92.5872 40.9C94.8272 42.2067 96.5772 44.12 97.8372 46.64C99.1439 49.1133 99.7972 52.1 99.7972 55.6C99.7972 59.0533 99.0739 61.9933 97.6272 64.42C96.1806 66.8467 94.1972 68.69 91.6772 69.95C89.1572 71.21 86.2639 71.84 82.9972 71.84ZM81.0372 64.14C82.6239 64.14 84.0706 63.79 85.3772 63.09C86.7306 62.39 87.8039 61.41 88.5972 60.15C89.4372 58.8433 89.8572 57.3733 89.8572 55.74C89.8572 54.0133 89.4839 52.52 88.7372 51.26C88.0372 49.9533 87.0572 48.95 85.7972 48.25C84.5839 47.5033 83.2306 47.13 81.7372 47.13C80.4306 47.13 79.2639 47.3167 78.2372 47.69C77.2572 48.0167 76.3706 48.53 75.5772 49.23C74.8306 49.8833 74.1772 50.7233 73.6172 51.75V59.24C73.9906 60.22 74.5272 61.0833 75.2272 61.83C75.9272 62.5767 76.7672 63.16 77.7472 63.58C78.7739 63.9533 79.8706 64.14 81.0372 64.14ZM122.549 71.84C118.816 71.84 115.642 71.14 113.029 69.74C110.462 68.34 108.502 66.4033 107.149 63.93C105.796 61.4567 105.119 58.61 105.119 55.39C105.119 52.31 105.912 49.5333 107.499 47.06C109.086 44.5867 111.209 42.6267 113.869 41.18C116.529 39.6867 119.492 38.94 122.759 38.94C127.146 38.94 130.739 40.2233 133.539 42.79C136.386 45.31 138.229 48.9733 139.069 53.78L115.269 61.34L113.099 56.02L130.319 50.21L128.289 51.12C127.916 49.9067 127.239 48.8567 126.259 47.97C125.326 47.0367 123.902 46.57 121.989 46.57C120.542 46.57 119.259 46.92 118.139 47.62C117.066 48.2733 116.226 49.23 115.619 50.49C115.059 51.7033 114.779 53.15 114.779 54.83C114.779 56.7433 115.129 58.3533 115.829 59.66C116.529 60.92 117.486 61.8767 118.699 62.53C119.912 63.1833 121.266 63.51 122.759 63.51C123.832 63.51 124.859 63.3233 125.839 62.95C126.866 62.5767 127.869 62.0867 128.849 61.48L133.189 68.76C131.556 69.6933 129.782 70.44 127.869 71C126.002 71.56 124.229 71.84 122.549 71.84ZM159.07 71.84C156.224 71.84 153.634 71.28 151.3 70.16C149.014 68.9933 147.194 67.22 145.84 64.84C144.487 62.46 143.81 59.4267 143.81 55.74C143.81 52.2867 144.51 49.3 145.91 46.78C147.31 44.26 149.154 42.3233 151.44 40.97C153.727 39.57 156.154 38.87 158.72 38.87C161.754 38.87 164.04 39.3833 165.58 40.41C167.167 41.39 168.474 42.4867 169.5 43.7L169.08 44.89L169.99 40.41H179.09V71H169.29V64.35L170.06 66.45C169.967 66.45 169.687 66.73 169.22 67.29C168.754 67.8033 168.054 68.4333 167.12 69.18C166.234 69.88 165.114 70.4867 163.76 71C162.454 71.56 160.89 71.84 159.07 71.84ZM161.87 63.86C163.037 63.86 164.087 63.6967 165.02 63.37C165.954 62.9967 166.77 62.4833 167.47 61.83C168.17 61.13 168.777 60.2667 169.29 59.24V51.75C168.917 50.7233 168.357 49.86 167.61 49.16C166.864 48.4133 165.977 47.8533 164.95 47.48C163.924 47.06 162.78 46.85 161.52 46.85C160.12 46.85 158.814 47.2233 157.6 47.97C156.434 48.67 155.5 49.65 154.8 50.91C154.1 52.17 153.75 53.6167 153.75 55.25C153.75 56.8833 154.124 58.3533 154.87 59.66C155.617 60.9667 156.597 61.9933 157.81 62.74C159.07 63.4867 160.424 63.86 161.87 63.86ZM189.188 71V15.77H198.988V71H189.188ZM206.758 50.21L220.618 71H209.208L200.318 55.81L206.758 50.21ZM196.048 62.53L195.068 53.22L213.548 39.64L219.498 44.89L196.048 62.53ZM33.7167 121.96C33.7167 123.593 34.2067 125.157 35.1867 126.65C36.1667 128.143 37.45 129.357 39.0367 130.29C40.67 131.223 42.4433 131.69 44.3567 131.69C46.4567 131.69 48.3233 131.223 49.9567 130.29C51.59 129.357 52.8733 128.143 53.8067 126.65C54.7867 125.157 55.2767 123.593 55.2767 121.96V89.48H65.2867V122.17C65.2867 125.95 64.3533 129.31 62.4867 132.25C60.62 135.143 58.1 137.43 54.9267 139.11C51.7533 140.743 48.23 141.56 44.3567 141.56C40.53 141.56 37.03 140.743 33.8567 139.11C30.73 137.43 28.2333 135.143 26.3667 132.25C24.5 129.31 23.5667 125.95 23.5667 122.17V89.48H33.7167V121.96ZM95.0968 141.84C93.2768 141.84 91.4802 141.513 89.7068 140.86C87.9802 140.16 86.5335 139.18 85.3668 137.92L85.6468 135.05V155.7H75.9168V109.71H84.3168L85.7168 115.66L84.9468 113.56C86.5335 112.207 88.3068 111.087 90.2668 110.2C92.2268 109.313 94.4902 108.87 97.0568 108.87C99.9035 108.87 102.447 109.547 104.687 110.9C106.927 112.207 108.677 114.12 109.937 116.64C111.243 119.113 111.897 122.1 111.897 125.6C111.897 129.053 111.173 131.993 109.727 134.42C108.28 136.847 106.297 138.69 103.777 139.95C101.257 141.21 98.3635 141.84 95.0968 141.84ZM93.1368 134.14C94.7235 134.14 96.1702 133.79 97.4768 133.09C98.8302 132.39 99.9035 131.41 100.697 130.15C101.537 128.843 101.957 127.373 101.957 125.74C101.957 124.013 101.584 122.52 100.837 121.26C100.137 119.953 99.1568 118.95 97.8968 118.25C96.6835 117.503 95.3302 117.13 93.8368 117.13C92.5302 117.13 91.3635 117.317 90.3368 117.69C89.3568 118.017 88.4702 118.53 87.6768 119.23C86.9302 119.883 86.2768 120.723 85.7168 121.75V129.24C86.0902 130.22 86.6268 131.083 87.3268 131.83C88.0268 132.577 88.8668 133.16 89.8468 133.58C90.8735 133.953 91.9702 134.14 93.1368 134.14Z" fill="white"/>
<path d="M117.078 87.45H125.828V127.07H117.078V87.45ZM121.698 141.98C120.018 141.98 118.642 141.537 117.568 140.65C116.495 139.717 115.958 138.503 115.958 137.01C115.958 135.563 116.495 134.35 117.568 133.37C118.688 132.39 120.065 131.9 121.698 131.9C123.332 131.9 124.662 132.39 125.688 133.37C126.762 134.35 127.298 135.563 127.298 137.01C127.298 138.503 126.785 139.717 125.758 140.65C124.732 141.537 123.378 141.98 121.698 141.98Z" fill="#FF5A6E"/>
</svg>
