<svg width="128" height="128" viewBox="0 0 128 128" fill="none" xmlns="http://www.w3.org/2000/svg">
<path d="M24.52 31.68C23.4 31.0667 22.2533 30.56 21.08 30.16C19.9333 29.76 18.8533 29.56 17.84 29.56C16.5867 29.56 15.6 29.8133 14.88 30.32C14.16 30.8267 13.8 31.5867 13.8 32.6C13.8 33.2933 14.0667 33.92 14.6 34.48C15.16 35.0133 15.8667 35.4933 16.72 35.92C17.6 36.3467 18.5067 36.7333 19.44 37.08C20.2933 37.4 21.1333 37.7867 21.96 38.24C22.8133 38.6667 23.5733 39.2133 24.24 39.88C24.9067 40.52 25.44 41.3333 25.84 42.32C26.24 43.28 26.44 44.4667 26.44 45.88C26.44 47.3733 26.0533 48.76 25.28 50.04C24.5067 51.32 23.3733 52.36 21.88 53.16C20.3867 53.9333 18.5467 54.32 16.36 54.32C15.24 54.32 14.0933 54.2133 12.92 54C11.7733 53.76 10.64 53.4133 9.52 52.96C8.4 52.48 7.32 51.88 6.28 51.16L8.84 46.64C9.53333 47.1467 10.28 47.6 11.08 48C11.9067 48.3733 12.7333 48.6667 13.56 48.88C14.3867 49.0933 15.1467 49.2 15.84 49.2C16.5333 49.2 17.2267 49.1067 17.92 48.92C18.64 48.7067 19.2267 48.36 19.68 47.88C20.16 47.4 20.4 46.7333 20.4 45.88C20.4 45.2933 20.2 44.76 19.8 44.28C19.4267 43.8 18.9067 43.36 18.24 42.96C17.6 42.56 16.8933 42.2133 16.12 41.92C15.2133 41.5733 14.28 41.1733 13.32 40.72C12.36 40.2667 11.4533 39.72 10.6 39.08C9.77333 38.4133 9.09333 37.6 8.56 36.64C8.05333 35.6533 7.8 34.4533 7.8 33.04C7.8 31.3333 8.17333 29.8533 8.92 28.6C9.69333 27.3467 10.7733 26.36 12.16 25.64C13.5467 24.8933 15.1467 24.48 16.96 24.4C19.3333 24.4 21.2533 24.68 22.72 25.24C24.2133 25.8 25.5467 26.4667 26.72 27.24L24.52 31.68ZM42.1603 54.48C41.1203 54.48 40.0936 54.2933 39.0803 53.92C38.0936 53.52 37.267 52.96 36.6003 52.24L36.7603 50.6V62.4H31.2003V36.12H36.0003L36.8003 39.52L36.3603 38.32C37.267 37.5467 38.2803 36.9067 39.4003 36.4C40.5203 35.8933 41.8136 35.64 43.2803 35.64C44.907 35.64 46.3603 36.0267 47.6403 36.8C48.9203 37.5467 49.9203 38.64 50.6403 40.08C51.387 41.4933 51.7603 43.2 51.7603 45.2C51.7603 47.1733 51.347 48.8533 50.5203 50.24C49.6936 51.6267 48.5603 52.68 47.1203 53.4C45.6803 54.12 44.027 54.48 42.1603 54.48ZM41.0403 50.08C41.947 50.08 42.7736 49.88 43.5203 49.48C44.2936 49.08 44.907 48.52 45.3603 47.8C45.8403 47.0533 46.0803 46.2133 46.0803 45.28C46.0803 44.2933 45.867 43.44 45.4403 42.72C45.0403 41.9733 44.4803 41.4 43.7603 41C43.067 40.5733 42.2936 40.36 41.4403 40.36C40.6936 40.36 40.027 40.4667 39.4403 40.68C38.8803 40.8667 38.3736 41.16 37.9203 41.56C37.4936 41.9333 37.1203 42.4133 36.8003 43V47.28C37.0136 47.84 37.3203 48.3333 37.7203 48.76C38.1203 49.1867 38.6003 49.52 39.1603 49.76C39.747 49.9733 40.3736 50.08 41.0403 50.08ZM64.7613 54.48C62.6279 54.48 60.8146 54.08 59.3213 53.28C57.8546 52.48 56.7346 51.3733 55.9613 49.96C55.1879 48.5467 54.8013 46.92 54.8013 45.08C54.8013 43.32 55.2546 41.7333 56.1613 40.32C57.0679 38.9067 58.2813 37.7867 59.8013 36.96C61.3213 36.1067 63.0146 35.68 64.8813 35.68C67.3879 35.68 69.4413 36.4133 71.0413 37.88C72.6679 39.32 73.7212 41.4133 74.2013 44.16L60.6013 48.48L59.3613 45.44L69.2013 42.12L68.0413 42.64C67.8279 41.9467 67.4413 41.3467 66.8813 40.84C66.3479 40.3067 65.5346 40.04 64.4413 40.04C63.6146 40.04 62.8813 40.24 62.2413 40.64C61.6279 41.0133 61.1479 41.56 60.8013 42.28C60.4813 42.9733 60.3213 43.8 60.3213 44.76C60.3213 45.8533 60.5213 46.7733 60.9213 47.52C61.3213 48.24 61.8679 48.7867 62.5613 49.16C63.2546 49.5333 64.0279 49.72 64.8813 49.72C65.4946 49.72 66.0813 49.6133 66.6413 49.4C67.2279 49.1867 67.8013 48.9067 68.3613 48.56L70.8413 52.72C69.9079 53.2533 68.8946 53.68 67.8013 54C66.7346 54.32 65.7213 54.48 64.7613 54.48ZM85.6306 54.48C84.004 54.48 82.524 54.16 81.1906 53.52C79.884 52.8533 78.844 51.84 78.0706 50.48C77.2973 49.12 76.9106 47.3867 76.9106 45.28C76.9106 43.3067 77.3106 41.6 78.1106 40.16C78.9106 38.72 79.964 37.6133 81.2706 36.84C82.5773 36.04 83.964 35.64 85.4306 35.64C87.164 35.64 88.4706 35.9333 89.3506 36.52C90.2573 37.08 91.004 37.7067 91.5906 38.4L91.3506 39.08L91.8706 36.52H97.0706V54H91.4706V50.2L91.9106 51.4C91.8573 51.4 91.6973 51.56 91.4306 51.88C91.164 52.1733 90.764 52.5333 90.2306 52.96C89.724 53.36 89.084 53.7067 88.3106 54C87.564 54.32 86.6706 54.48 85.6306 54.48ZM87.2306 49.92C87.8973 49.92 88.4973 49.8267 89.0306 49.64C89.564 49.4267 90.0306 49.1333 90.4306 48.76C90.8306 48.36 91.1773 47.8667 91.4706 47.28V43C91.2573 42.4133 90.9373 41.92 90.5106 41.52C90.084 41.0933 89.5773 40.7733 88.9906 40.56C88.404 40.32 87.7506 40.2 87.0306 40.2C86.2306 40.2 85.484 40.4133 84.7906 40.84C84.124 41.24 83.5906 41.8 83.1906 42.52C82.7906 43.24 82.5906 44.0667 82.5906 45C82.5906 45.9333 82.804 46.7733 83.2306 47.52C83.6573 48.2667 84.2173 48.8533 84.9106 49.28C85.6306 49.7067 86.404 49.92 87.2306 49.92ZM102.841 54V22.44H108.441V54H102.841ZM112.881 42.12L120.801 54H114.281L109.201 45.32L112.881 42.12ZM106.761 49.16L106.201 43.84L116.761 36.08L120.161 39.08L106.761 49.16ZM14 83.12C14 84.0533 14.28 84.9467 14.84 85.8C15.4 86.6533 16.1333 87.3467 17.04 87.88C17.9733 88.4133 18.9867 88.68 20.08 88.68C21.28 88.68 22.3467 88.4133 23.28 87.88C24.2133 87.3467 24.9467 86.6533 25.48 85.8C26.04 84.9467 26.32 84.0533 26.32 83.12V64.56H32.04V83.24C32.04 85.4 31.5067 87.32 30.44 89C29.3733 90.6533 27.9333 91.96 26.12 92.92C24.3067 93.8533 22.2933 94.32 20.08 94.32C17.8933 94.32 15.8933 93.8533 14.08 92.92C12.2933 91.96 10.8667 90.6533 9.8 89C8.73333 87.32 8.2 85.4 8.2 83.24V64.56H14V83.12ZM49.0744 94.48C48.0344 94.48 47.0077 94.2933 45.9944 93.92C45.0077 93.52 44.181 92.96 43.5144 92.24L43.6744 90.6V102.4H38.1144V76.12H42.9144L43.7144 79.52L43.2744 78.32C44.181 77.5467 45.1944 76.9067 46.3144 76.4C47.4344 75.8933 48.7277 75.64 50.1944 75.64C51.821 75.64 53.2744 76.0267 54.5544 76.8C55.8344 77.5467 56.8344 78.64 57.5544 80.08C58.301 81.4933 58.6744 83.2 58.6744 85.2C58.6744 87.1733 58.261 88.8533 57.4344 90.24C56.6077 91.6267 55.4744 92.68 54.0344 93.4C52.5944 94.12 50.941 94.48 49.0744 94.48ZM47.9544 90.08C48.861 90.08 49.6877 89.88 50.4344 89.48C51.2077 89.08 51.821 88.52 52.2744 87.8C52.7544 87.0533 52.9944 86.2133 52.9944 85.28C52.9944 84.2933 52.781 83.44 52.3544 82.72C51.9544 81.9733 51.3944 81.4 50.6744 81C49.981 80.5733 49.2077 80.36 48.3544 80.36C47.6077 80.36 46.941 80.4667 46.3544 80.68C45.7944 80.8667 45.2877 81.16 44.8344 81.56C44.4077 81.9333 44.0344 82.4133 43.7144 83V87.28C43.9277 87.84 44.2344 88.3333 44.6344 88.76C45.0344 89.1867 45.5144 89.52 46.0744 89.76C46.661 89.9733 47.2877 90.08 47.9544 90.08Z" fill="white"/>
<path d="M61.6353 63.4H66.6353V86.04H61.6353V63.4ZM64.2753 94.56C63.3153 94.56 62.5286 94.3067 61.9153 93.8C61.302 93.2667 60.9953 92.5733 60.9953 91.72C60.9953 90.8933 61.302 90.2 61.9153 89.64C62.5553 89.08 63.342 88.8 64.2753 88.8C65.2086 88.8 65.9686 89.08 66.5553 89.64C67.1686 90.2 67.4753 90.8933 67.4753 91.72C67.4753 92.5733 67.182 93.2667 66.5953 93.8C66.0086 94.3067 65.2353 94.56 64.2753 94.56Z" fill="#FF5A6E"/>
</svg>
