<svg width="700" height="623" viewBox="0 0 535 193" fill="none" xmlns="http://www.w3.org/2000/svg">
<path d="M9.6 29.6C9.6 26.88 9.22667 24.88 8.48 23.6C7.73333 22.2667 6.24 21.6 4 21.6H3.2V19.2H36.72C41.2533 19.2 43.52 21.3333 43.52 25.6V32.4H41.12C41.12 29.04 40.2667 26.6133 38.56 25.12C36.9067 23.5733 34.4267 22.8 31.12 22.8H20V43.2H37.6V46.8H20V72H9.6V29.6ZM63.7675 72.8C59.8742 72.8 56.4608 71.9467 53.5275 70.24C50.6475 68.48 48.4342 66.1333 46.8875 63.2C45.3408 60.2133 44.5675 56.88 44.5675 53.2C44.5675 49.52 45.3408 46.2133 46.8875 43.28C48.4342 40.2933 50.6475 37.9467 53.5275 36.24C56.4608 34.48 59.8742 33.6 63.7675 33.6C67.6608 33.6 71.0475 34.48 73.9275 36.24C76.8608 37.9467 79.1008 40.2933 80.6475 43.28C82.1942 46.2133 82.9675 49.52 82.9675 53.2C82.9675 56.88 82.1942 60.2133 80.6475 63.2C79.1008 66.1333 76.8608 68.48 73.9275 70.24C71.0475 71.9467 67.6608 72.8 63.7675 72.8ZM63.7675 69.2C66.4875 69.2 68.5675 67.7333 70.0075 64.8C71.4475 61.8667 72.1675 58 72.1675 53.2C72.1675 48.4 71.4475 44.5333 70.0075 41.6C68.5675 38.6667 66.4875 37.2 63.7675 37.2C61.0475 37.2 58.9675 38.6667 57.5275 41.6C56.0875 44.5333 55.3675 48.4 55.3675 53.2C55.3675 58 56.0875 61.8667 57.5275 64.8C58.9675 67.7333 61.0475 69.2 63.7675 69.2ZM116.308 35.2C117.268 35.8933 117.961 36.6667 118.388 37.52C118.815 38.32 119.028 38.7467 119.028 38.8L114.948 41.92C114.575 41.44 114.095 40.9333 113.508 40.4C112.335 39.3333 110.975 38.8 109.428 38.8C106.335 38.8 103.961 39.6267 102.308 41.28L102.468 42.48C102.575 43.44 102.628 44.32 102.628 45.12V72H92.2281V44.8C92.2281 42.08 91.8548 40.08 91.1081 38.8C90.4148 37.4667 88.9481 36.8 86.7081 36.8H85.9081V34.4H93.8281C95.6415 34.4 97.0548 34.64 98.0681 35.12C99.1348 35.5467 99.9615 36.2933 100.548 37.36C103.428 34.8533 106.788 33.6 110.628 33.6C112.921 33.6 114.815 34.1333 116.308 35.2ZM125.666 44.8C125.666 42.08 125.292 40.08 124.546 38.8C123.852 37.4667 122.386 36.8 120.146 36.8H119.346V34.4H127.266C130.732 34.4 132.999 35.4133 134.066 37.44H134.386C137.319 34.88 140.679 33.6 144.466 33.6C147.079 33.6 149.346 34.1067 151.266 35.12C153.239 36.08 154.652 37.0933 155.506 38.16C156.786 36.7733 158.306 35.68 160.066 34.88C161.826 34.0267 164.092 33.6 166.866 33.6C176.199 33.6 180.866 38.5067 180.866 48.32V72H170.466V48.24C170.466 44.56 169.879 41.8667 168.706 40.16C167.532 38.4533 165.986 37.6 164.066 37.6C162.626 37.6 161.292 37.8933 160.066 38.48C158.839 39.0133 157.879 39.7333 157.186 40.64C157.292 40.8533 157.506 41.44 157.826 42.4C158.252 44 158.466 45.9733 158.466 48.32V72H148.066V48.24C148.066 44.56 147.479 41.8667 146.306 40.16C145.132 38.4533 143.586 37.6 141.666 37.6C140.546 37.6 139.372 37.9467 138.146 38.64C136.972 39.28 136.092 40 135.506 40.8L135.746 41.92C135.959 42.56 136.066 43.6 136.066 45.04V72H125.666V44.8Z" fill="#FF5A6E"/>
<path d="M11.6 87.6C11.6 84.88 11.2267 82.88 10.48 81.6C9.73333 80.2667 8.24 79.6 6 79.6H5.2V77.2H27.2C32.6933 77.2 37.6533 78.2933 42.08 80.48C46.56 82.6133 48.8 86.88 48.8 93.28C48.8 97.44 47.6267 100.667 45.28 102.96C42.9867 105.253 40.4 106.773 37.52 107.52C34.64 108.267 32 108.64 29.6 108.64H22V130H11.6V87.6ZM26.8 105.44C29.9467 105.44 32.5333 104.48 34.56 102.56C36.5867 100.64 37.6 97.4133 37.6 92.88C37.6 88.4 36.5867 85.2 34.56 83.28C32.5867 81.36 30.1333 80.4 27.2 80.4C25.6533 80.4 24.4533 80.5067 23.6 80.72L22 80.96V105.44H26.8ZM70.5944 130.8C66.9144 130.8 63.6877 129.947 60.9144 128.24C58.141 126.533 55.981 124.213 54.4344 121.28C52.941 118.293 52.1944 114.933 52.1944 111.2C52.1944 107.04 52.941 103.493 54.4344 100.56C55.981 97.6267 58.0877 95.4133 60.7544 93.92C63.421 92.3733 66.4344 91.6 69.7944 91.6C73.101 91.6 76.0877 92.2667 78.7544 93.6C81.421 94.9333 83.5277 96.8267 85.0744 99.28C86.621 101.68 87.3944 104.453 87.3944 107.6C87.3944 108.613 87.341 109.76 87.2344 111.04L87.0744 112.64H62.9944C62.9944 117.707 63.7677 121.413 65.3144 123.76C66.861 126.053 69.021 127.2 71.7944 127.2C74.3544 127.2 76.4877 126.64 78.1944 125.52C79.9544 124.347 81.6344 122.693 83.2344 120.56L85.7144 122.4C84.1677 124.8 82.221 126.8 79.8744 128.4C77.581 130 74.4877 130.8 70.5944 130.8ZM76.5944 109.04C76.5944 104.027 76.0077 100.48 74.8344 98.4C73.661 96.2667 71.981 95.2 69.7944 95.2C67.7677 95.2 66.1144 96.2933 64.8344 98.48C63.6077 100.613 62.9944 104.133 62.9944 109.04H76.5944ZM96.3375 102.8C96.3375 100.08 95.9642 98.08 95.2175 96.8C94.5242 95.4667 93.0575 94.8 90.8175 94.8H90.0175V92.4H97.9375C99.7508 92.4 101.164 92.64 102.178 93.12C103.244 93.5467 104.071 94.2933 104.658 95.36C107.378 92.8533 111.271 91.6 116.338 91.6C121.404 91.6 125.191 92.8 127.698 95.2C130.258 97.5467 131.538 101.253 131.538 106.32V130H121.138V106.24C121.138 102.56 120.444 99.8667 119.058 98.16C117.724 96.4533 115.884 95.6 113.538 95.6C111.884 95.6 110.418 95.84 109.138 96.32C107.911 96.7467 106.924 97.3333 106.178 98.08L106.418 99.2C106.631 99.84 106.738 100.88 106.738 102.32V130H96.3375V102.8ZM156.673 146C150.593 146 145.793 145.013 142.273 143.04C138.806 141.12 137.073 137.973 137.073 133.6C137.073 130.933 138.14 128.72 140.273 126.96C142.406 125.2 144.94 123.947 147.873 123.2C145.473 122.453 144.273 120.987 144.273 118.8C144.273 116.987 145.34 115.653 147.473 114.8C145.18 114 143.26 112.613 141.713 110.64C140.22 108.667 139.473 106.48 139.473 104.08C139.473 99.7067 141.02 96.5333 144.113 94.56C147.26 92.5867 151.446 91.6 156.673 91.6H173.473V93.76L166.273 94.72C168.513 95.5733 170.326 96.88 171.713 98.64C173.153 100.4 173.873 102.213 173.873 104.08C173.873 108.453 172.38 111.6 169.393 113.52C166.46 115.44 162.22 116.4 156.673 116.4C153.9 116.4 151.873 116.56 150.593 116.88C149.313 117.147 148.673 117.787 148.673 118.8C148.673 119.653 149.313 120.213 150.593 120.48C151.873 120.747 153.9 120.907 156.673 120.96C162.433 121.067 167.126 122.213 170.753 124.4C174.433 126.533 176.273 129.6 176.273 133.6C176.273 137.973 174.513 141.12 170.993 143.04C167.526 145.013 162.753 146 156.673 146ZM156.673 113.2C160.94 113.2 163.073 110.16 163.073 104.08C163.073 101.093 162.486 98.8 161.313 97.2C160.14 95.6 158.593 94.8 156.673 94.8C154.7 94.8 153.126 95.5733 151.953 97.12C150.833 98.6667 150.273 100.987 150.273 104.08C150.273 110.16 152.406 113.2 156.673 113.2ZM156.673 142.4C159.446 142.4 161.606 141.653 163.153 140.16C164.7 138.72 165.473 136.533 165.473 133.6C165.473 131.253 164.726 129.307 163.233 127.76C161.793 126.16 159.82 125.12 157.313 124.64L153.553 124.24C151.686 125.04 150.273 126.187 149.313 127.68C148.353 129.173 147.873 131.147 147.873 133.6C147.873 136.533 148.646 138.72 150.193 140.16C151.74 141.653 153.9 142.4 156.673 142.4ZM193.748 130.8C189.428 130.8 186.068 129.84 183.668 127.92C181.321 125.947 180.148 123.307 180.148 120C180.148 117.333 180.761 115.12 181.988 113.36C183.268 111.6 185.481 110.267 188.628 109.36C191.775 108.453 196.148 108 201.748 108H202.948C202.948 103.36 202.308 100.08 201.028 98.16C199.748 96.1867 197.855 95.2 195.348 95.2C193.268 95.2 191.561 95.7067 190.228 96.72C188.895 97.7333 187.935 99.6267 187.348 102.4H182.948C182.948 100.587 183.055 99.04 183.268 97.76C183.535 96.48 184.095 95.36 184.948 94.4C186.601 92.5333 190.601 91.6 196.948 91.6C202.281 91.6 206.335 93.0133 209.108 95.84C211.935 98.6133 213.348 102.8 213.348 108.4V130H206.548L203.748 126.4H203.348C202.868 127.147 202.121 127.893 201.108 128.64C199.295 130.08 196.841 130.8 193.748 130.8ZM196.148 126.8C197.268 126.8 198.228 126.587 199.028 126.16C199.828 125.68 200.601 125.04 201.348 124.24C202.041 123.493 202.575 122.613 202.948 121.6V111.6H201.748C197.961 111.6 195.215 112.293 193.508 113.68C191.801 115.013 190.948 117.12 190.948 120C190.948 122.187 191.401 123.867 192.308 125.04C193.215 126.213 194.495 126.8 196.148 126.8ZM237.276 130.8C231.889 130.8 227.729 128.987 224.796 125.36C221.916 121.68 220.476 116.96 220.476 111.2C220.476 105.44 221.942 100.747 224.876 97.12C227.862 93.44 232.129 91.6 237.676 91.6C239.596 91.6 241.649 92 243.836 92.8C244.636 93.1733 245.382 93.5733 246.076 94V87.6C246.076 84.88 245.702 82.88 244.956 81.6C244.209 80.2667 242.716 79.6 240.476 79.6H239.676V77.2H249.276C251.196 77.2 252.662 77.52 253.676 78.16C254.689 78.8 255.409 79.8667 255.836 81.36C256.262 82.8 256.476 84.88 256.476 87.6V130H249.676L246.876 126.4H246.476C245.996 127.147 245.249 127.893 244.236 128.64C242.422 130.08 240.102 130.8 237.276 130.8ZM238.876 127.2C240.849 127.2 242.636 126.347 244.236 124.64C244.822 124.053 245.436 123.173 246.076 122V97.6C245.542 97.1733 244.902 96.7733 244.156 96.4C242.449 95.6 240.822 95.2 239.276 95.2C233.942 95.2 231.276 100.533 231.276 111.2C231.276 116.16 231.862 120.08 233.036 122.96C234.262 125.787 236.209 127.2 238.876 127.2ZM281.666 130.8C276.599 130.8 272.866 129.627 270.466 127.28C268.066 124.933 266.866 121.2 266.866 116.08V102.8C266.866 100.08 266.492 98.08 265.746 96.8C264.999 95.4667 263.506 94.8 261.266 94.8H260.466V92.4H270.066C271.986 92.4 273.452 92.72 274.466 93.36C275.479 94 276.199 95.0667 276.626 96.56C277.052 98 277.266 100.08 277.266 102.8V116.16C277.266 120.16 277.826 123.013 278.946 124.72C280.066 126.373 281.772 127.2 284.066 127.2C286.039 127.2 287.826 126.347 289.426 124.64C290.012 124.053 290.626 123.173 291.266 122V92.4H301.666V130H294.866L292.066 126.4H291.666C290.919 127.2 290.039 127.947 289.026 128.64C286.999 130.08 284.546 130.8 281.666 130.8ZM322.42 130.8C318.1 130.8 314.74 129.84 312.34 127.92C309.993 125.947 308.82 123.307 308.82 120C308.82 117.333 309.433 115.12 310.66 113.36C311.94 111.6 314.153 110.267 317.3 109.36C320.447 108.453 324.82 108 330.42 108H331.62C331.62 103.36 330.98 100.08 329.7 98.16C328.42 96.1867 326.527 95.2 324.02 95.2C321.94 95.2 320.233 95.7067 318.9 96.72C317.567 97.7333 316.607 99.6267 316.02 102.4H311.62C311.62 100.587 311.727 99.04 311.94 97.76C312.207 96.48 312.767 95.36 313.62 94.4C315.273 92.5333 319.273 91.6 325.62 91.6C330.953 91.6 335.007 93.0133 337.78 95.84C340.607 98.6133 342.02 102.8 342.02 108.4V130H335.22L332.42 126.4H332.02C331.54 127.147 330.793 127.893 329.78 128.64C327.967 130.08 325.513 130.8 322.42 130.8ZM324.82 126.8C325.94 126.8 326.9 126.587 327.7 126.16C328.5 125.68 329.273 125.04 330.02 124.24C330.713 123.493 331.247 122.613 331.62 121.6V111.6H330.42C326.633 111.6 323.887 112.293 322.18 113.68C320.473 115.013 319.62 117.12 319.62 120C319.62 122.187 320.073 123.867 320.98 125.04C321.887 126.213 323.167 126.8 324.82 126.8ZM352.588 102.8C352.588 100.08 352.214 98.08 351.467 96.8C350.774 95.4667 349.308 94.8 347.068 94.8H346.268V92.4H354.188C356.001 92.4 357.414 92.64 358.428 93.12C359.494 93.5467 360.321 94.2933 360.908 95.36C363.628 92.8533 367.521 91.6 372.588 91.6C377.654 91.6 381.441 92.8 383.948 95.2C386.508 97.5467 387.788 101.253 387.788 106.32V130H377.388V106.24C377.388 102.56 376.694 99.8667 375.308 98.16C373.974 96.4533 372.134 95.6 369.788 95.6C368.134 95.6 366.668 95.84 365.388 96.32C364.161 96.7467 363.174 97.3333 362.428 98.08L362.668 99.2C362.881 99.84 362.988 100.88 362.988 102.32V130H352.588V102.8Z" fill="#39A7FF"/>
<path d="M29 150.978C103 235.978 341 78.4778 519.5 130.978" stroke="#F9808E"/>
</svg>
